<?xml version="1.0" encoding="UTF-8" standalone="no"?>
<!-- Created with Inkscape (http://www.inkscape.org/) -->
<svg
   xmlns:dc="http://purl.org/dc/elements/1.1/"
   xmlns:cc="http://creativecommons.org/ns#"
   xmlns:rdf="http://www.w3.org/1999/02/22-rdf-syntax-ns#"
   xmlns:svg="http://www.w3.org/2000/svg"
   xmlns="http://www.w3.org/2000/svg"
   xmlns:sodipodi="http://sodipodi.sourceforge.net/DTD/sodipodi-0.dtd"
   xmlns:inkscape="http://www.inkscape.org/namespaces/inkscape"
   width="100"
   height="100"
   id="svg2"
   sodipodi:version="0.32"
   inkscape:version="0.46"
   version="1.0"
   inkscape:export-filename="/home/josch/Desktop/arrow02.png"
   inkscape:export-xdpi="90"
   inkscape:export-ydpi="90"
   sodipodi:docname="arrow.svg"
   inkscape:output_extension="org.inkscape.output.svg.inkscape">
  <defs
     id="defs4">
    <inkscape:perspective
       sodipodi:type="inkscape:persp3d"
       inkscape:vp_x="0 : 526.18109 : 1"
       inkscape:vp_y="0 : 1000 : 0"
       inkscape:vp_z="744.09448 : 526.18109 : 1"
       inkscape:persp3d-origin="372.04724 : 350.78739 : 1"
       id="perspective10" />
    <inkscape:perspective
       id="perspective3423"
       inkscape:persp3d-origin="372.04724 : 350.78739 : 1"
       inkscape:vp_z="744.09448 : 526.18109 : 1"
       inkscape:vp_y="0 : 1000 : 0"
       inkscape:vp_x="0 : 526.18109 : 1"
       sodipodi:type="inkscape:persp3d" />
  </defs>
  <sodipodi:namedview
     id="base"
     pagecolor="#ffffff"
     bordercolor="#666666"
     borderopacity="1.0"
     gridtolerance="10000"
     guidetolerance="10"
     objecttolerance="10"
     inkscape:pageopacity="0.0"
     inkscape:pageshadow="2"
     inkscape:zoom="5.6"
     inkscape:cx="49.430542"
     inkscape:cy="39.31309"
     inkscape:document-units="px"
     inkscape:current-layer="layer1"
     showgrid="false"
     inkscape:window-width="1696"
     inkscape:window-height="998"
     inkscape:window-x="432"
     inkscape:window-y="66" />
  <metadata
     id="metadata7">
    <rdf:RDF>
      <cc:Work
         rdf:about="">
        <dc:format>image/svg+xml</dc:format>
        <dc:type
           rdf:resource="http://purl.org/dc/dcmitype/StillImage" />
      </cc:Work>
    </rdf:RDF>
  </metadata>
  <g
     inkscape:label="Layer 1"
     inkscape:groupmode="layer"
     id="layer1"
     transform="translate(-93.22505,-94.508928)">
    <path
       style="fill:#ffffff;fill-opacity:1;fill-rule:evenodd;stroke:#000000;stroke-width:1.10000002;stroke-linecap:butt;stroke-linejoin:miter;stroke-miterlimit:4;stroke-dasharray:none;stroke-opacity:1"
       d="M 143.22505,135.82012 C 138.80262,135.82012 135.12099,139.15869 134.58858,143.43812 L 114.37556,143.43812 L 108.28102,138.54302 L 106.93349,140.22571 L 110.94547,143.43812 L 108.28102,143.43812 L 102.18649,138.54302 L 100.83896,140.22571 L 104.82031,143.43812 L 102.24774,143.43812 L 96.153211,138.54302 L 94.77505,140.22571 L 100.13456,144.50893 L 94.77505,148.79214 L 96.153211,150.47484 L 102.24774,145.57973 L 104.82031,145.57973 L 100.83896,148.79214 L 102.18649,150.47484 L 108.31165,145.57973 L 110.94547,145.57973 L 106.93349,148.79214 L 108.28102,150.47484 L 114.40618,145.57973 L 134.58858,145.57973 C 135.12099,149.85917 138.80262,153.19775 143.22505,153.19774 C 147.64749,153.19774 151.32912,149.85917 151.86152,145.57973 L 186.77493,145.57973 L 179.51661,151.17851 L 180.83352,152.89179 L 190.57252,145.36557 L 191.67505,144.50893 L 190.57252,143.65228 L 180.83352,136.12606 L 179.51661,137.83935 L 186.77493,143.43812 L 151.86152,143.43812 C 151.32912,139.15869 147.64749,135.82012 143.22505,135.82012 z M 143.22505,137.99232 C 146.84398,137.99232 149.74834,140.89372 149.74834,144.50893 C 149.74834,148.12415 146.84398,151.05613 143.22505,151.05613 C 139.60612,151.05613 136.67113,148.12415 136.67113,144.50893 C 136.67113,140.89372 139.60612,137.99232 143.22505,137.99232 z"
       id="path3190" />
  </g>
</svg>
